<svg width="85" height="71" viewBox="0 0 85 71" fill="none" xmlns="http://www.w3.org/2000/svg">
<path fill-rule="evenodd" clip-rule="evenodd" d="M20.2006 44.5444C19.7267 44.4642 19.2581 44.3682 18.7951 44.2579C18.7864 44.0534 18.7577 43.4551 18.6696 42.1973C18.6164 41.4365 18.6159 41.4368 19.5022 40.8922C19.803 40.7074 20.1649 40.4844 20.5957 40.1835C22.0868 39.1385 23.5644 35.3624 24.8313 31.9041C25.0271 31.3723 25.1953 30.912 25.2645 30.7642C25.3673 30.545 25.5174 30.387 25.692 30.2022C26.0409 29.8352 26.5677 29.2796 26.2956 28.2966C25.9921 27.1907 24.9822 27.0886 24.0906 26.9991C23.651 26.9548 23.1529 26.9046 22.5803 26.7689C20.9728 26.3811 19.7 25.2911 18.2052 23.9066C17.0827 22.8657 15.5613 22.193 14.3295 22.193C13.6965 22.193 13.1632 22.3721 12.7898 22.7089C12.3181 23.1318 11.3558 23.5083 10.8267 23.6852C10.855 23.1141 10.8176 22.3245 10.5311 21.4896C10.3263 20.8947 10.3346 20.6147 10.3407 20.4102C10.3482 20.135 10.3607 19.717 9.89774 19.3168C9.31721 18.8145 8.68482 19.1599 8.34504 19.3448C8.01622 19.5228 7.7974 19.6267 7.5695 19.595C7.5094 19.5417 7.35894 19.2196 7.41034 18.6482C7.46212 18.0767 7.72866 17.3435 8.32053 16.9931C8.45924 16.9103 8.5718 16.8945 8.70749 16.9383C9.26006 17.1167 9.9139 18.1221 10.2011 18.7793L10.3925 19.2159L10.8683 19.234C10.9303 19.2385 12.4175 19.2692 12.6704 17.085C12.7687 16.2429 15.9956 12.0521 18.518 9.70506C18.6654 9.63022 19.1999 9.66008 19.4558 9.67444C19.9407 9.70165 20.3266 9.7232 20.6554 9.53007L20.9626 9.31765L21.0372 9.00926C21.1385 8.58822 20.9121 8.22083 20.6713 7.83268C20.6377 7.77825 20.6024 7.72458 20.5711 7.67356C21.1149 6.16402 20.2257 3.80597 19.7684 2.76169C21.0523 2.51791 22.3736 2.386 23.7267 2.386C24.2872 2.386 24.8397 2.41472 25.3885 2.45705C25.387 2.52698 25.385 2.59955 25.382 2.67552C25.3461 3.60302 25.2811 5.32988 27.0767 5.86166C27.5692 6.00792 27.8369 6.16365 28.0727 6.3016C28.6336 6.62891 29.0814 6.82128 30.165 6.52383C30.6295 6.39608 30.9168 6.35149 31.088 6.33864C31.0873 6.3462 31.0846 6.35338 31.0816 6.36056C30.7448 7.36025 29.4772 9.22734 28.7879 10.0226C28.696 10.1276 28.5954 10.2365 28.4938 10.3453C27.9442 10.9357 27.3209 11.6062 27.5492 12.3813C27.6879 12.8519 28.0942 13.1766 28.7564 13.3448C29.8986 13.6377 30.4194 13.4441 31.0835 13.1134C31.3204 12.9959 31.5642 12.8738 31.9266 12.7695C32.3722 12.6402 32.6818 12.4471 32.9018 12.2434C33.1051 12.7064 33.5349 13.237 34.6362 13.4173C35.2772 13.5213 35.6545 13.6702 35.9893 13.8002C36.4501 13.9808 36.9282 14.1672 37.6402 13.9589C38.0499 13.835 38.435 13.6203 38.7744 13.4294C38.9195 13.3481 39.1192 13.237 39.2552 13.1766C39.4669 13.3519 39.7001 13.6173 39.7621 13.7737C39.7042 13.8123 39.5726 13.8814 39.3088 13.9468C38.4898 14.1483 37.9996 14.3441 37.6417 14.4873C37.0872 14.7088 36.8991 14.7829 35.8888 14.6559C35.1794 14.5655 34.5562 14.2707 33.9537 13.9861C33.07 13.5681 32.1557 13.1361 31.1402 13.5054L30.9459 13.6093C30.9338 13.6176 30.6424 13.821 30.2377 13.7503C28.9745 13.5258 28.4809 14.5822 28.1861 15.2122L28.1025 15.3876C28.0575 15.4824 27.8071 15.6801 27.6419 15.8105C27.1188 16.2217 26.3288 16.8453 26.4059 17.9456L26.4245 18.2219C26.5783 20.5988 26.8614 22.9217 27.8837 23.8125C29.0886 24.8598 31.1628 24.9721 32.1352 24.6489C32.5517 24.5163 34.5886 24.7049 35.3483 24.8209C35.5656 25.183 35.9621 26.0273 36.3181 26.8475L37.5101 25.7563C37.0078 24.6308 36.4023 23.5113 35.9397 23.3911C35.6925 23.3272 32.6418 22.8869 31.6591 23.2093C31.1251 23.3873 29.6227 23.3155 28.8792 22.6688C28.4234 22.2716 28.1075 20.7432 27.9375 18.1243L27.9186 17.839C27.8997 17.568 28.1166 17.3669 28.5807 17.0014C28.9209 16.7327 29.2724 16.4557 29.4696 16.0445L29.5584 15.8562C29.6578 15.6446 29.8237 15.2908 29.9753 15.2432C30.8147 15.3906 31.4581 15.0765 31.7298 14.908C32.1157 14.8093 32.5897 15.0191 33.3051 15.357C33.9824 15.6767 34.7492 16.0392 35.6986 16.1597C37.0347 16.3294 37.4773 16.1862 38.2052 15.8955C38.5386 15.7617 38.954 15.5958 39.6729 15.4186C40.8582 15.1253 41.1982 14.5137 41.2749 14.0523C41.482 12.8069 39.9442 11.8019 39.9321 11.7948C39.3131 11.3907 38.6327 11.7709 38.0344 12.1066C37.7487 12.2664 37.4531 12.4312 37.207 12.5061C37.0105 12.5643 36.9467 12.5473 36.5408 12.3882C36.1783 12.246 35.6798 12.0514 34.8804 11.921C34.3328 11.8314 34.3037 11.7263 34.2088 11.3783C34.126 11.0755 34.0012 10.6182 33.5167 10.3427C33.2226 10.1764 32.94 10.1356 32.6735 10.2202C32.2789 10.3461 32.1225 10.6828 32.0382 10.8635C31.9426 11.0687 31.8798 11.2044 31.5053 11.3129C31.0117 11.4554 30.6775 11.6224 30.408 11.7558C29.9707 11.9739 29.8192 12.0491 29.1586 11.8825C29.2886 11.7173 29.4742 11.5173 29.6038 11.3783C29.7169 11.2566 29.829 11.1364 29.9329 11.0173C30.6257 10.2191 32.082 8.1411 32.519 6.84396C32.7488 6.15911 32.6818 5.61788 32.3201 5.23539C31.7433 4.62425 30.7509 4.79054 29.764 5.06153C29.2152 5.21158 29.1711 5.18701 28.8366 4.99236C28.5576 4.82871 28.1763 4.60649 27.5084 4.40768C26.9411 4.23987 26.8546 3.82336 26.8962 2.73297C26.8981 2.6948 26.8987 2.66116 26.8991 2.62413C35.8298 3.96813 42.9504 10.8967 44.5914 19.7269C44.5325 19.8285 44.4891 19.9393 44.4819 20.0651C44.4464 20.7077 44.1229 21.4938 43.709 22.2656L44.2883 21.9704L46.416 22.0403C45.6045 10.23 35.7388 0.869274 23.7267 0.868896C11.1858 0.868896 0.98175 11.0725 0.98175 23.6145C0.982128 34.8812 9.21819 44.2598 19.9857 46.0494L20.2006 44.5444ZM17.1564 42.3039C17.1711 42.5049 17.1838 42.6898 17.1952 42.8576C17.151 42.7755 17.1121 42.6848 17.0774 42.5847C16.9073 42.088 16.6596 41.5177 16.3981 40.9145C15.9408 39.8596 15.4212 38.6634 15.3713 37.9309C15.3531 37.683 15.3841 37.3595 15.4166 37.0167C15.5326 35.7868 15.7087 33.9281 13.7834 32.4994C11.8615 31.0734 10.9231 29.3597 10.8705 28.5974C10.8127 27.7852 11.1147 25.7613 11.3354 25.1142C11.8831 24.9316 13.0868 24.48 13.8031 23.836C13.8367 23.8065 13.9712 23.7093 14.3295 23.7093C15.0427 23.7093 16.199 24.1141 17.1741 25.019C18.7785 26.5032 20.265 27.7701 22.227 28.2433C22.9005 28.4035 23.4757 28.4617 23.9387 28.5078C24.2717 28.5419 24.7282 28.5876 24.8329 28.6991C24.8768 28.8548 24.8774 28.8578 24.5917 29.159C24.3721 29.3907 24.0982 29.6802 23.8907 30.1213C23.794 30.3288 23.6405 30.7483 23.4081 31.3829C22.7361 33.2152 20.9521 38.0829 19.726 38.9416C19.3257 39.2209 18.9879 39.4284 18.7082 39.6004C17.6117 40.275 17.0445 40.7013 17.1564 42.3039ZM2.49814 23.6133C2.49814 21.7474 2.74274 19.9381 3.19779 18.2124C3.35275 19.0893 3.60214 19.869 3.99105 20.2061C4.07987 20.2885 4.18832 20.6906 4.25975 20.9567C4.43474 21.6083 4.67443 22.5025 5.41295 23.1439C6.50221 24.0903 9.434 24.9978 9.76546 25.0979L9.77078 25.0991C9.36939 26.5633 9.35609 28.6734 9.35798 28.7025C9.44189 29.9221 10.5799 32.0115 12.8805 33.7172C14.1194 34.636 14.0152 35.7233 13.906 36.8734C13.8689 37.2801 13.831 37.6649 13.8578 38.0372C13.9266 39.0278 14.4758 40.2943 15.0072 41.5185C15.2566 42.093 15.4926 42.6353 15.6426 43.0749C15.6672 43.1463 15.7004 43.2057 15.7272 43.2729C7.97692 40.1068 2.49814 32.4903 2.49814 23.6133ZM18.2576 3.10336C18.8563 4.385 19.5155 6.51401 19.1024 7.25329C18.933 7.5583 18.9837 7.85838 19.1084 8.14109C18.5479 8.12937 17.939 8.18002 17.5184 8.57007C15.398 10.5377 11.3506 15.3022 11.1639 16.9104C11.1484 17.046 11.1261 17.1617 11.1019 17.2577C10.685 16.5925 10.0232 15.7708 9.17698 15.4964C8.62441 15.3161 8.06082 15.3846 7.54794 15.6873C6.19978 16.4855 5.71447 18.1939 5.93293 19.4691C6.08071 20.335 6.56376 20.9295 7.22329 21.0607C7.9036 21.1948 8.44833 20.993 8.83195 20.8021C8.85349 21.0841 8.9184 21.4632 9.09755 21.9817C9.26763 22.4806 9.31792 22.9663 9.32019 23.3563C8.22299 22.9723 6.90021 22.4277 6.40773 21.9991C6.01844 21.6616 5.86834 21.103 5.72358 20.564C5.57542 20.0107 5.42195 19.4396 5.013 19.0892C4.69325 18.6663 4.37776 16.0815 4.48623 14.7685C4.48887 14.7379 4.47635 14.7107 4.4756 14.6816C7.10502 9.03836 12.1397 4.73687 18.2576 3.10336Z" fill="white"/>
<path d="M77.1575 20.8925C79.7241 21.185 81.1278 22.3623 82.3524 23.6738C82.7266 24.1225 83.0525 24.6187 83.3185 25.1494C83.5846 25.6785 83.791 26.2337 83.9259 26.8021L83.9269 26.8014C84.0607 27.3649 84.1314 27.9519 84.1314 28.5521C84.1314 40.3585 84.1314 50.3656 84.1314 62.3342C84.1314 63.3657 83.9221 64.3582 83.5446 65.2698V65.2762C83.1557 66.2147 82.5834 67.0605 81.8748 67.7696L81.8683 67.776C81.1585 68.4846 80.3112 69.0573 79.3735 69.4465H79.367C78.4554 69.8241 77.4628 70.0335 76.4314 70.0335H26.3414C25.3058 70.0335 24.3106 69.8241 23.4005 69.4465C22.4628 69.0576 21.6154 68.4854 20.9052 67.776L20.8992 67.7696C20.1905 67.0605 19.6183 66.2132 19.2294 65.2747V65.2687C18.8518 64.3567 18.6424 63.3645 18.6424 62.3331V49.4302L18.6436 49.415H18.6428V49.3633V47.7464H18.706C18.7476 47.1655 18.8186 46.4938 18.9369 45.8279L18.9403 45.8286L18.9513 45.7553C19.1002 45.0746 19.3076 44.3694 19.5635 43.6645C19.8107 42.9827 20.1096 42.2978 20.449 41.6364C20.7915 40.9686 21.1635 40.3446 21.5509 39.792C21.9447 39.2319 22.3735 38.7126 22.8282 38.2571V38.2507L36.0408 25.0375L36.514 24.5635H36.5551C37.0397 24.1398 37.5763 23.7426 38.1474 23.3802C38.9298 22.8843 39.807 22.4341 40.7235 22.0543L40.7233 22.0517C41.6148 21.6824 42.5552 21.3827 43.4891 21.1737C44.4158 20.9669 45.3187 20.8531 46.1457 20.8531H76.4323C76.6201 20.8531 76.8589 20.8664 77.1446 20.8925C77.1492 20.8925 77.1529 20.8925 77.1575 20.8925ZM82.221 28.5521C82.221 28.1662 82.1821 27.7803 82.1042 27.4023V27.3861L82.0689 27.236C81.968 26.8074 81.8191 26.3898 81.6214 25.996C81.423 25.5999 81.177 25.2264 80.8936 24.8859C80.6124 24.548 80.2907 24.2426 79.9422 23.9743L79.875 23.9191C79.7454 23.8038 79.6056 23.6995 79.4585 23.6073C79.2779 23.4935 79.0854 23.3953 78.8907 23.3076C78.6708 23.2086 78.4448 23.1201 78.215 23.0464C77.9901 22.9742 77.7456 22.902 77.5124 22.8597L77.3952 22.8385H77.3684L77.2456 22.8189L77.012 22.7887L76.967 22.7837C76.7901 22.7667 76.6099 22.7633 76.4323 22.7633H46.1457C45.3917 22.7633 44.6316 22.8642 43.8961 23.0283C43.1508 23.1946 42.4146 23.4285 41.7033 23.7101H41.6912L41.4482 23.8106C40.6586 24.1372 39.8907 24.5333 39.1688 24.991C38.5372 25.3916 37.921 25.8523 37.3915 26.3822L37.3757 26.3981L37.2914 26.4888L25.1475 38.6328L25.1441 38.629L24.1753 39.5992C23.7814 39.9934 23.4277 40.4338 23.1083 40.8896C22.7489 41.4017 22.4246 41.941 22.1389 42.4978C21.8381 43.0843 21.5753 43.6925 21.3508 44.3123C21.1392 44.8959 20.9623 45.4942 20.8277 46.1L20.8217 46.1276L20.8165 46.1556C20.6975 46.8249 20.6234 47.5045 20.5844 48.1829C20.5617 48.576 20.5542 48.9698 20.5542 49.3633L20.553 62.3327C20.553 63.0901 20.6963 63.8415 20.9847 64.5418L21.4201 65.5994L21.5395 65.5695C21.7459 65.876 21.9813 66.1625 22.2428 66.4244C22.7822 66.9645 23.4262 67.395 24.1311 67.6872C24.8319 67.9782 25.5832 68.123 26.3414 68.123H76.4314C77.1888 68.123 77.9403 67.9797 78.6406 67.6909L79.7205 67.2457L79.6871 67.1229C79.9894 66.9177 80.2722 66.6837 80.5311 66.4244C80.7923 66.1629 81.0277 65.8764 81.234 65.5706L81.3532 65.6005L81.7889 64.5434C82.0772 63.843 82.221 63.0916 82.221 62.3342C82.221 50.5304 82.221 40.2308 82.221 28.5521Z" fill="white"/>
<path d="M66.4217 27.6245C67.8152 27.6245 69.0773 28.1895 69.9904 29.1027C70.9039 30.0162 71.4686 31.2782 71.4686 32.6713C71.4686 34.0652 70.9039 35.3268 69.9904 36.2403C69.0773 37.1535 67.8152 37.7185 66.4217 37.7185C65.0278 37.7185 63.7663 37.1535 62.8532 36.2403C61.9397 35.3268 61.3746 34.0652 61.3746 32.6713C61.3746 31.2782 61.9397 30.0162 62.8532 29.1027C63.7663 28.1895 65.0278 27.6245 66.4217 27.6245ZM68.3754 30.7177C67.8758 30.218 67.1848 29.9089 66.4217 29.9089C65.6586 29.9089 64.9678 30.218 64.4682 30.7177C63.9681 31.2177 63.659 31.9086 63.659 32.6713C63.659 33.4344 63.9681 34.1253 64.4682 34.625C64.9678 35.125 65.6586 35.4341 66.4217 35.4341C67.1848 35.4341 67.8758 35.125 68.3754 34.625C68.8751 34.1253 69.1846 33.4344 69.1846 32.6713C69.1846 31.9086 68.8751 31.2177 68.3754 30.7177Z" fill="white"/>
<path d="M76.2826 50.7261H77.4247V49.584V44.4544C77.4247 42.7286 76.7195 41.1601 75.5834 40.024C74.5379 38.9786 73.127 38.2979 71.5642 38.1959V40.4881C72.4966 40.5849 73.3368 41.0075 73.9683 41.639C74.6914 42.362 75.1407 43.3591 75.1407 44.4544V48.4418C70.6741 48.4418 62.5886 48.4418 57.7028 48.4418V44.4544C57.7028 43.3591 58.1517 42.362 58.8747 41.639C59.5067 41.0075 60.3469 40.5849 61.2793 40.4881V38.1959C59.7161 38.2979 58.3052 38.9786 57.2597 40.024C56.1236 41.1601 55.4184 42.7286 55.4184 44.4544V49.584V50.7261H56.5605C62.206 50.7261 70.9897 50.7261 76.2826 50.7261Z" fill="white"/>
</svg>
