<svg width="84" height="62" viewBox="0 0 84 62" fill="none" xmlns="http://www.w3.org/2000/svg">
<path fill-rule="evenodd" clip-rule="evenodd" d="M29.1168 2.4748C31.132 2.4748 33.4856 3.83204 35.0269 4.60533C39.359 6.77742 39.2221 6.94902 43.1793 6.94902C44.9379 6.94902 48.9158 4.97156 50.5947 4.0898C53.3345 2.65055 56.6124 1.26875 59.4259 4.08904C60.8557 5.52148 61.5273 9.03947 61.9706 11.9928C62.1392 13.1153 64.2936 26.0288 64.4255 26.8433C64.4739 27.1392 64.5267 27.3509 64.5785 27.5323H66.02L66.0118 27.4911C65.8228 26.5723 65.7185 25.5745 65.5711 24.8005C65.4803 24.325 63.3782 11.9815 63.2977 11.5162C62.3222 5.86845 61.8187 1.1327 54.7869 1.1327C51.482 1.1327 45.9946 5.6069 42.7328 5.6069C39.1098 5.6069 36.7593 3.84641 33.0591 2.10329C32.742 1.95362 32.685 1.93622 32.4428 1.82586C32.1102 1.67355 31.9356 1.57566 31.6793 1.4721C28.9569 0.372639 25.7246 1.47852 23.8099 3.42044C21.8639 5.39487 21.5165 9.38038 20.9537 13.0265C20.8411 13.759 19.4132 27.0625 19.2677 27.7493C19.2299 27.9273 19.1865 28.086 19.1415 28.2448H20.5886C20.7315 27.4511 22.162 14.064 22.2829 13.2676C23.1242 7.72873 23.7861 2.4748 29.1168 2.4748Z" fill="white" stroke="white" stroke-width="0.755906" stroke-miterlimit="22.9256"/>
<path d="M27.2549 38.3199C30.347 38.3199 33.1464 39.572 35.1738 41.5971C37.0484 40.0664 39.4934 39.2171 42.1058 39.2171C44.7715 39.2171 47.22 40.1484 49.1434 41.7029L49.2431 41.602C51.2708 39.5743 54.0729 38.3199 57.1672 38.3199C60.2612 38.3199 63.0633 39.5743 65.0907 41.602C67.1184 43.6294 68.3728 46.4315 68.3728 49.5258C68.3728 52.6201 67.1184 55.4219 65.0907 57.4492C63.0633 59.4769 60.2612 60.7313 57.1672 60.7313C54.0729 60.7313 51.2708 59.4769 49.2431 57.4492C47.2157 55.4219 45.9614 52.6201 45.9614 49.5258C45.9614 47.0581 46.7589 44.7764 48.1101 42.9256C46.4652 41.6069 44.3777 40.8178 42.1058 40.8178C39.9073 40.8178 37.6596 41.737 36.2347 42.8217C37.6327 44.6914 38.4609 47.0117 38.4609 49.5258C38.4609 52.6201 37.2061 55.4219 35.1788 57.4492C33.1511 59.4769 30.3492 60.7313 27.2549 60.7313C24.1606 60.7313 21.3589 59.4769 19.3312 57.4492C17.3039 55.4219 16.0491 52.6201 16.0491 49.5258C16.0491 46.4311 17.3039 43.6294 19.3312 41.602C21.3589 39.5743 24.1606 38.3199 27.2549 38.3199ZM63.9592 42.7336C62.2213 40.9958 59.8193 39.9201 57.1672 39.9201C54.5148 39.9201 52.113 40.9958 50.3752 42.7336C48.6373 44.4714 47.5616 46.8729 47.5616 49.5258C47.5616 52.1783 48.6373 54.5798 50.3752 56.3176C52.113 58.0554 54.5148 59.1307 57.1672 59.1307C59.8193 59.1307 62.2213 58.0554 63.9592 56.3176C65.697 54.5798 66.7723 52.1783 66.7723 49.5258C66.7723 46.8733 65.697 44.4714 63.9592 42.7336ZM34.0467 42.7336C32.3093 40.9958 29.9074 39.9201 27.2549 39.9201C24.6025 39.9201 22.2007 40.9958 20.4629 42.7336C18.725 44.4714 17.6496 46.8729 17.6496 49.5258C17.6496 52.1783 18.725 54.5798 20.4629 56.3176C22.2007 58.0554 24.6028 59.1307 27.2549 59.1307C29.9074 59.1307 32.3093 58.0554 34.0467 56.3176C35.7845 54.5798 36.8602 52.1783 36.8602 49.5258C36.8602 46.8733 35.7845 44.4714 34.0467 42.7336Z" fill="white" stroke="white" stroke-width="0.755906" stroke-miterlimit="22.9256"/>
<path d="M4.85229 26.8902H19.7606V28.2769H4.85229C4.2744 28.2769 3.74942 28.5127 3.36882 28.8926C2.98898 29.2732 2.75317 29.7982 2.75317 30.3761C2.75317 30.9539 2.98898 31.4793 3.36882 31.8595C3.74942 32.2394 4.2744 32.4756 4.85229 32.4756H79.9481C80.526 32.4756 81.051 32.2394 81.4316 31.8595C81.8114 31.4793 82.0472 30.9539 82.0472 30.3761C82.0472 29.7982 81.8114 29.2732 81.4316 28.8926C81.051 28.5127 80.526 28.2769 79.9481 28.2769H17.9445V26.8902H79.9481C80.9055 26.8902 81.7766 27.2821 82.4082 27.9133L82.4108 27.9163C83.042 28.5475 83.4343 29.4187 83.4343 30.3761C83.4343 31.3327 83.042 32.2046 82.4108 32.8361L82.4082 32.8388C81.7766 33.4704 80.9055 33.8623 79.9481 33.8623H4.85229C3.89493 33.8623 3.02376 33.4704 2.3922 32.8388L2.38954 32.8361C1.75836 32.2046 1.36597 31.3327 1.36597 30.3761C1.36597 29.4187 1.75836 28.5475 2.38954 27.9163L2.3922 27.9133C3.02376 27.2821 3.89493 26.8902 4.85229 26.8902Z" fill="white" stroke="white" stroke-width="0.755906" stroke-miterlimit="22.9256"/>
<path d="M20.6284 17.4921H63.1345V18.7726H20.6284V17.4921Z" fill="white" stroke="white" stroke-width="0.755906" stroke-miterlimit="22.9256"/>
</svg>
